# xmcd
#
# Track frame offsets:
# 150
# 14495
# 23912
# 36880
# 48945
# 59277
# 76655
# 87220
# 100677
# 110802
# 122932
# 133320
# 146017
# 156357
# 165990
# 179592
# 190295
# 201715
# 211472
# 221882
# 230715
# 244327
# 256137
# 268020
#
# Disc length: 3791 seconds
#
#
# Revision: 0
# Processed by: cddbd v1.5PL3 Copyright (c) Steve Scherf et al.
# Submitted via: FreeRIP 2.60 
#
DISCID=6e0ecd18
DTITLE=Ronnie McDowell - A Tribute To The King
DYEAR=1900
DGENRE=
TTITLE0=The King Is Gone
TTITLE1=Baby Let's Play House
TTITLE2=Heartbreak Hotel
TTITLE3=I Was The One
TTITLE4=My Baby Left Me
TTITLE5=Love Me Tender
TTITLE6=Lawdy Miss Clawdy
TTITLE7=Love Me
TTITLE8=Got A Lot O' Livin' To Do
TTITLE9=Mean Woman Blues
TTITLE10=Treat Me Nice
TTITLE11=Don't
TTITLE12=King Creole
TTITLE13=As Long As I Have You
TTITLE14=One Night With You
TTITLE15=(Now And Then There's) A Fool Such As I
TTITLE16=The Girl Of My Best Friend
TTITLE17=His Latest Flame (Marie's The Name)
TTITLE18=She's Not You
TTITLE19=(You're The) Devil In Disguise
TTITLE20=One Broken Heart For Sale
TTITLE21=It Hurts Me
TTITLE22=Crying In The Chapel
TTITLE23=Tupelo's Too Far
EXTD=
EXTT0=
EXTT1=
EXTT2=
EXTT3=
EXTT4=
EXTT5=
EXTT6=
EXTT7=
EXTT8=
EXTT9=
EXTT10=
EXTT11=
EXTT12=
EXTT13=
EXTT14=
EXTT15=
EXTT16=
EXTT17=
EXTT18=
EXTT19=
EXTT20=
EXTT21=
EXTT22=
EXTT23=
PLAYORDER=
